<?xml version="1.0" standalone="no"?>
<!DOCTYPE svg PUBLIC "-//W3C//DTD SVG 20010904//EN"
 "http://www.w3.org/TR/2001/REC-SVG-20010904/DTD/svg10.dtd">
<svg version="1.0" xmlns="http://www.w3.org/2000/svg"
 width="500.000000pt" height="500.000000pt" viewBox="0 0 500.000000 500.000000"
 preserveAspectRatio="xMidYMid meet">
<metadata>
Created by potrace 1.14, written by Peter Selinger 2001-2017
</metadata>
<g transform="translate(0.000000,500.000000) scale(0.100000,-0.100000)"
fill="#000000" stroke="none">
<path d="M1805 4420 c-92 -20 -183 -97 -228 -193 -38 -81 -93 -270 -143 -495
-7 -36 -33 -183 -38 -227 -3 -22 -11 -80 -17 -130 -6 -49 -15 -97 -20 -106 -4
-9 -6 -72 -4 -140 13 -328 16 -408 20 -430 2 -13 6 -51 10 -84 9 -80 15 -127
20 -145 5 -18 18 -91 18 -105 0 -9 -219 -456 -235 -480 -4 -5 -97 -188 -206
-405 -110 -217 -211 -415 -225 -440 -14 -25 -39 -72 -56 -105 -17 -33 -54
-100 -81 -150 -72 -127 -84 -156 -73 -175 6 -8 19 -16 31 -18 25 -4 36 13 153
230 l84 156 45 -6 c25 -4 151 -7 280 -6 193 1 257 5 360 23 164 28 317 65 421
101 l84 29 59 -67 c60 -68 219 -227 270 -270 50 -42 189 -143 217 -158 24 -12
30 -12 43 2 31 30 19 52 -56 103 -275 185 -480 418 -721 816 -67 110 -227 481
-227 525 0 14 7 16 44 10 65 -10 219 -2 316 16 172 31 351 105 499 207 85 58
230 197 281 269 18 27 35 47 36 45 1 -1 25 -79 53 -172 58 -198 100 -368 171
-690 81 -365 115 -478 190 -628 73 -145 186 -273 286 -322 74 -38 151 -25 237
39 39 29 197 220 238 288 19 32 37 58 40 58 4 0 9 -14 13 -31 10 -52 63 -153
105 -201 44 -49 104 -83 163 -91 42 -5 128 21 159 49 46 42 67 114 40 138 -17
15 -60 6 -62 -14 -5 -38 -25 -66 -56 -78 -112 -45 -207 25 -268 198 l-13 37
71 0 c84 0 134 7 182 28 43 17 53 39 31 64 -15 16 -29 18 -99 14 -238 -12
-217 -17 -211 52 12 135 -4 228 -42 233 -40 6 -49 -22 -49 -147 0 -98 -2 -115
-15 -113 -8 2 -23 5 -32 7 -21 5 -63 -27 -91 -70 -123 -184 -226 -305 -261
-305 -26 0 -79 74 -127 175 -105 224 -184 499 -334 1155 -17 74 -71 281 -91
348 -22 70 -31 86 -57 103 -19 11 -43 17 -59 15 -26 -4 -28 -2 -28 29 0 19 4
36 9 39 14 9 -3 107 -26 142 -14 22 -72 44 -117 44 -46 0 -136 -54 -168 -101
-25 -38 -29 -51 -25 -92 7 -77 61 -134 135 -144 l41 -6 -32 -45 c-71 -100
-208 -222 -337 -299 -63 -39 -222 -111 -257 -117 -10 -2 -38 -9 -63 -16 -106
-28 -180 -37 -301 -33 -165 5 -150 -2 -171 78 -10 39 -20 80 -22 93 -3 16 42
120 146 330 257 525 364 767 465 1057 67 192 64 357 -8 511 -69 146 -190 222
-314 194z m292 -472 c-3 -8 -6 -5 -6 6 -1 11 2 17 5 13 3 -3 4 -12 1 -19z m-7
-63 c-6 -30 -8 -33 -9 -13 -1 25 8 62 14 56 2 -2 -1 -21 -5 -43z m-308 -797
c-8 -18 -17 -27 -20 -20 -2 7 4 22 14 33 24 26 25 24 6 -13z m-263 -1065 l28
-82 -69 -16 c-82 -18 -188 -31 -188 -21 0 3 37 79 82 169 l82 162 18 -65 c10
-36 31 -102 47 -147z m-103 -213 c0 -11 -3 -20 -7 -20 -4 0 -14 -3 -23 -6 -12
-5 -16 0 -16 20 0 20 5 26 23 26 16 0 23 -6 23 -20z m209 -60 c17 -33 19 -50
6 -50 -8 0 -31 52 -31 71 0 17 10 9 25 -21z m-87 -57 c6 -19 7 -35 2 -38 -8
-5 -30 54 -30 80 0 17 17 -9 28 -42z m-104 9 c2 -4 7 -23 11 -43 6 -35 5 -36
-26 -43 -40 -8 -42 -6 -45 43 -2 30 2 41 14 44 28 8 41 7 46 -1z m-138 -60 c2
-44 0 -48 -21 -47 -34 0 -38 8 -25 54 7 28 16 41 28 41 13 0 17 -10 18 -48z
m-132 -20 c-4 -18 -10 -32 -15 -32 -12 0 -11 14 3 45 15 32 20 27 12 -13z
m541 -36 c22 -39 24 -50 14 -57 -22 -14 -25 -11 -47 40 -14 35 -17 52 -9 60
13 13 9 17 42 -43z m-110 -42 c19 -47 19 -51 -4 -57 -15 -4 -22 2 -30 26 -25
69 6 97 34 31z m-111 -50 c7 -31 6 -32 -40 -43 -25 -7 -49 -10 -52 -7 -3 3 -6
24 -8 45 -3 40 -3 40 39 49 46 9 51 6 61 -44z m-350 -21 c-2 -65 -8 -73 -54
-73 -22 0 -40 2 -40 5 0 9 41 88 53 103 21 27 42 9 41 -35z m166 37 c1 -3 3
-21 6 -41 6 -42 3 -45 -54 -54 -46 -7 -46 -6 -36 57 5 28 12 38 28 40 33 5 56
4 56 -2z m522 -168 c-24 -18 -34 -11 -65 47 -28 50 -28 53 -12 71 17 19 19 17
56 -43 34 -56 36 -63 21 -75z m-141 20 c16 -29 29 -55 29 -57 0 -4 -68 -25
-82 -25 -6 0 -38 97 -38 114 0 8 42 25 53 23 5 -2 22 -26 38 -55z m-155 -38
c9 -30 13 -59 9 -62 -4 -4 -33 -12 -65 -18 l-59 -10 -6 45 c-4 25 -7 52 -8 60
-1 8 15 19 38 26 69 22 73 20 91 -41z m-205 -11 c0 -15 3 -40 5 -54 5 -31 -13
-39 -89 -39 l-48 0 3 52 c5 57 10 61 91 66 34 3 37 1 38 -25z m-205 -9 c-3 -8
-6 -32 -6 -51 l0 -35 -76 5 c-41 3 -78 7 -80 10 -2 2 5 22 17 44 l21 40 65 2
c56 1 64 -1 59 -15z m795 -56 c13 -18 27 -34 31 -36 18 -8 6 -31 -22 -40 -26
-10 -31 -8 -41 11 -7 12 -15 24 -18 27 -3 3 -11 15 -18 26 -10 19 -9 23 10 32
32 16 34 15 58 -20z m-128 -63 c18 -31 23 -47 14 -49 -6 -2 -28 -8 -47 -14
-82 -26 -85 -25 -96 29 l-10 49 45 14 c65 20 63 20 94 -29z m-793 -39 c25 -2
60 -5 78 -5 32 -1 32 -1 32 -52 l0 -50 -97 5 c-54 2 -108 5 -120 5 -30 1 -29
6 8 75 26 47 33 54 43 42 6 -8 31 -17 56 -20z m587 -8 c7 -24 9 -46 5 -50 -4
-4 -29 -10 -57 -13 -27 -4 -58 -9 -68 -11 -19 -6 -23 3 -31 57 l-5 36 57 10
c90 16 87 17 99 -29z m-237 0 c0 -12 1 -15 10 -48 5 -16 5 -32 1 -35 -5 -2
-45 -7 -90 -10 l-81 -7 0 51 0 50 53 3 c87 5 107 4 107 -4z"/>
</g>
</svg>
